<svg width="145" height="45" viewBox="0 0 145 45" fill="none" xmlns="http://www.w3.org/2000/svg">
<g id="top page">
<g id="Group 80">
<g id="Group">
<g id="Group_2">
<g id="Group_3">
<path id="Vector" d="M143.22 17.1001C141.66 11.3001 136.66 7.01025 129.87 7.01025C126.86 7.01025 124.02 8.04025 121.66 9.76025C116.16 11.6503 112.1 16.7203 112.31 23.0703C112.55 30.3803 117.48 35.75 124.14 36.73C125.94 37.64 127.96 38.2003 130.12 38.3203C137.77 38.7403 144.84 32.8904 144.84 23.9004C144.84 21.3404 144.26 19.0601 143.22 17.1001Z" fill="white"/>
<path id="Vector_2" d="M12.71 9.80029C5.69996 9.80029 0 15.5003 0 22.5103V44.9502H6.31V33.4702C8.19 34.5702 10.38 35.2202 12.71 35.2202C19.72 35.2202 25.42 29.5203 25.42 22.5103C25.42 15.5003 19.72 9.80029 12.71 9.80029ZM12.71 28.9004C9.17996 28.9004 6.31 26.03 6.31 22.5C6.31 18.97 9.17996 16.1001 12.71 16.1001C16.24 16.1001 19.11 18.97 19.11 22.5C19.11 26.03 16.24 28.9004 12.71 28.9004Z" fill="black"/>
<path id="Vector_3" d="M97.72 9.80029C91.56 9.80029 86.54 14.82 86.54 20.98V35.2104H92.85V20.98C92.85 18.29 95.04 16.1104 97.72 16.1104C100.4 16.1104 102.59 18.3 102.59 20.98V35.2104H108.9V20.98C108.9 14.82 103.88 9.80029 97.72 9.80029Z" fill="black"/>
<path id="Vector_4" d="M41.04 9.80029C39.29 9.80029 37.64 10.2202 36.17 10.9302V0H29.86V35.2104H36.17V20.98C36.17 18.29 38.36 16.1104 41.04 16.1104C43.72 16.1104 45.91 18.3 45.91 20.98V35.2104H52.22V20.98C52.22 14.82 47.2 9.80029 41.04 9.80029Z" fill="black"/>
<path id="Vector_5" d="M69.38 9.80029C62.37 9.80029 56.67 15.5003 56.67 22.5103C56.67 29.5203 62.37 35.2202 69.38 35.2202C76.39 35.2202 82.09 29.5203 82.09 22.5103C82.09 15.5003 76.39 9.80029 69.38 9.80029ZM69.38 28.9004C65.85 28.9004 62.98 26.03 62.98 22.5C62.98 18.97 65.85 16.1001 69.38 16.1001C72.91 16.1001 75.78 18.97 75.78 22.5C75.78 26.03 72.91 28.9004 69.38 28.9004Z" fill="black"/>
<g id="Vector_6" style="mix-blend-mode:multiply">
<path d="M129.87 7.01025C122.16 7.01025 115.51 13.77 115.51 21.48C115.51 29.19 121.79 35.1704 129.49 35.4604C137.41 35.7505 143.26 30.1004 143.71 21.8604C144.15 13.8104 138.42 7.01025 129.87 7.01025Z" fill="#A99CFF"/>
</g>
<g id="Vector_7" style="mix-blend-mode:multiply">
<path d="M129.6 9.47026C121.9 9.18026 115.77 15.6903 116.14 24.0503C116.49 31.9103 122.42 37.9004 130.12 38.3204C137.77 38.7404 144.84 32.8904 144.84 23.9004C144.84 15.3004 138.32 9.79026 129.6 9.47026Z" fill="#DEB2FF"/>
</g>
<g id="Vector_8" style="mix-blend-mode:multiply">
<path d="M127.08 8.97989C119.07 8.61989 112.03 14.7602 112.3 23.0702C112.58 31.5902 119.24 37.49 127.59 36.85C136.77 36.14 141.65 30.2899 141.65 22.2299C141.65 14.1699 134.78 9.33014 127.08 8.99014V8.97989Z" fill="#FFBAE4"/>
</g>
<path id="Vector_9" d="M141.65 22.23C141.65 15.82 136.89 11.1504 130.85 9.57036C130.43 9.53036 130.02 9.49003 129.59 9.48003C121.89 9.19003 115.76 15.7001 116.13 24.0601C116.17 24.8701 116.27 25.6502 116.42 26.4102C118.43 31.6102 123.52 35.2503 129.48 35.4703C131.66 35.5503 133.68 35.1702 135.48 34.4102C139.52 31.8502 141.64 27.52 141.64 22.23H141.65Z" fill="black"/>
</g>
</g>
</g>
</g>
</g>
</svg>
